<svg width="222" height="50" viewBox="0 0 222 50" fill="none" xmlns="http://www.w3.org/2000/svg">
<path d="M75.843 35.1852H87.7833V42.2609H66.335V35.4063L77.833 21.2549H66.4455V14.1791H87.4516V21.0337L75.843 35.1852Z" fill="#060132"/>
<path d="M119.292 30.3206H100.166C100.276 32.0896 100.829 33.4163 101.824 34.3007C102.819 35.1852 103.925 35.738 105.472 35.738C107.573 35.738 109.121 34.8535 109.895 32.974H118.961C118.518 34.8535 117.744 36.5119 116.528 37.9492C115.312 39.3864 113.764 40.6026 111.995 41.3765C110.227 42.2609 108.126 42.5926 105.915 42.5926C103.261 42.5926 100.718 42.0398 98.7284 40.8237C96.6278 39.6075 94.9695 37.9492 93.7533 35.8486C92.5372 33.6374 91.9844 31.0945 91.9844 28.22C91.9844 25.3455 92.5372 22.6921 93.7533 20.5915C94.9695 18.3803 96.5173 16.722 98.7284 15.6164C100.829 14.4002 103.261 13.8474 106.025 13.8474C108.679 13.8474 111.111 14.4002 113.212 15.6164C115.312 16.722 116.86 18.3803 118.076 20.4809C119.292 22.5816 119.845 25.1244 119.845 27.8884C119.403 28.6623 119.403 29.4362 119.292 30.3206ZM110.779 25.5666C110.779 24.1294 110.337 22.9132 109.342 22.0288C108.347 21.1443 107.131 20.7021 105.583 20.7021C104.146 20.7021 102.93 21.1443 101.935 21.9182C100.94 22.8027 100.276 23.9083 100.166 25.5666H110.779Z" fill="#060132"/>
<path d="M132.78 35.1852H144.721V42.2609H123.272V35.4063L134.771 21.2549H123.383V14.1791H144.5V21.0337L132.78 35.1852Z" fill="#060132"/>
<path d="M165.837 34.9641V42.2609H161.526C158.43 42.2609 155.998 41.487 154.339 39.9392C152.57 38.3914 151.686 35.9591 151.686 32.4212V21.3654H148.369V14.1791H151.686V7.32449H160.199V14.1791H165.727V21.3654H160.199V32.6423C160.199 33.5268 160.42 34.0796 160.752 34.4113C161.194 34.8535 161.857 34.9641 162.742 34.9641H165.837Z" fill="#060132"/>
<path d="M183.637 15.1741C185.074 14.2897 186.733 13.8474 188.612 13.8474V23.0238H186.291C184.19 23.0238 182.642 23.466 181.537 24.461C180.431 25.3455 179.878 27.0039 179.878 29.3256V42.3715H171.365V14.1791H179.878V18.8226C180.984 17.3853 182.2 16.1692 183.637 15.1741Z" fill="#060132"/>
<path d="M193.588 20.5915C194.694 18.3803 196.131 16.722 198.01 15.6164C199.89 14.4002 201.99 13.8474 204.202 13.8474C206.192 13.8474 207.85 14.2897 209.398 15.0636C210.835 15.8375 212.051 16.9431 212.825 18.2698V14.2897H221.228V42.3715H212.715V38.3914C211.941 39.7181 210.725 40.7131 209.287 41.5976C207.85 42.3715 206.081 42.8137 204.091 42.8137C201.769 42.8137 199.779 42.2609 197.9 41.0448C196.02 39.8287 194.583 38.1703 193.477 35.9591C192.372 33.7479 191.93 31.2051 191.93 28.3306C191.93 25.4561 192.482 22.8027 193.588 20.5915ZM210.946 23.1343C209.73 21.9182 208.292 21.2549 206.634 21.2549C204.976 21.2549 203.538 21.8076 202.322 23.1343C201.106 24.3505 200.553 26.1194 200.553 28.22C200.553 30.3206 201.106 32.0896 202.322 33.4163C203.538 34.6324 204.976 35.2958 206.634 35.2958C208.292 35.2958 209.73 34.743 210.946 33.4163C212.162 32.2001 212.715 30.4312 212.715 28.3306C212.604 26.1194 212.051 24.461 210.946 23.1343Z" fill="#060132"/>
<path d="M21.669 5.33444C24.433 4.78165 27.5286 4.78165 30.2926 5.33444C31.7298 5.55556 33.0566 5.99779 34.2727 6.55058C35.4888 7.10337 36.705 7.76672 37.9211 8.54063C39.0267 9.31454 40.1323 10.199 41.0167 11.194C41.9012 12.0785 42.8962 13.1841 43.6702 14.2897C44.4441 15.3952 45.1074 16.6114 45.6602 17.9381C46.1024 18.8226 46.8763 19.3753 47.8714 19.3753C48.203 19.3753 48.4242 19.2648 48.7558 19.1542C49.972 18.6014 50.5248 17.1642 49.972 16.0586C49.3086 14.5108 48.5347 12.963 47.5397 11.6363C46.6552 10.199 45.5496 8.98286 44.3335 7.76672C43.1174 6.55058 41.9012 5.445 40.464 4.56053C39.0267 3.67606 37.5894 2.7916 36.0416 2.12825C34.3832 1.4649 32.7249 0.912106 31.0665 0.580431C27.6392 -0.193477 23.9908 -0.193477 20.5635 0.580431C19.2368 0.801548 18.4629 2.12825 18.684 3.45495C19.1262 4.67109 20.3423 5.55556 21.669 5.33444Z" fill="url(#paint0_linear_3_19)"/>
<path d="M34.4942 15.8375C34.4942 14.5108 33.3886 13.4052 32.0619 13.4052H2.43228C1.10558 13.4052 0 14.5108 0 15.8375C0 17.1642 1.10558 18.2697 2.43228 18.2697H32.1725C33.4992 18.1592 34.4942 17.1642 34.4942 15.8375Z" fill="url(#paint1_linear_3_19)"/>
<path d="M23.8809 24.9033C23.8809 26.23 24.9864 27.3355 26.3131 27.3355C27.6398 27.3355 28.7454 26.23 28.7454 24.9033C28.7454 23.5766 27.6398 22.471 26.3131 22.471C24.9864 22.471 23.8809 23.5766 23.8809 24.9033Z" fill="url(#paint2_linear_3_19)"/>
<path d="M31.1771 44.6932C28.4131 45.246 25.3175 45.246 22.5536 44.6932C21.1163 44.4721 19.7896 44.0299 18.5735 43.4771C17.3573 42.9243 16.1412 42.2609 14.925 41.487C13.8194 40.7131 12.7139 39.8286 11.8294 38.8336C10.8344 37.8386 9.9499 36.8436 9.176 35.738C8.40209 34.6324 7.73874 33.4163 7.18595 32.0896C6.63315 30.8734 5.1959 30.3206 3.97975 30.8734C2.76361 31.3156 2.21082 32.7529 2.76361 33.969C3.42696 35.5169 4.20087 37.0647 5.1959 38.3914C6.08036 39.8286 7.18595 41.0448 8.40209 42.2609C9.61823 43.4771 10.8344 44.5826 12.2716 45.4671C13.7089 46.3516 15.1461 47.236 16.694 47.8994C18.3523 48.5627 20.0107 49.1155 21.6691 49.4472C23.438 49.7789 25.0964 50 26.9759 50C28.7448 50 30.5138 49.7789 32.2827 49.4472C33.6094 49.2261 34.3833 47.8994 34.1622 46.5727C33.8305 45.3566 32.5038 44.4721 31.1771 44.6932Z" fill="url(#paint3_linear_3_19)"/>
<path d="M50.4145 31.6473H20.7848C19.4581 31.6473 18.3525 32.7529 18.3525 34.0796C18.3525 35.4063 19.4581 36.5119 20.7848 36.5119H50.525C51.8517 36.5119 52.9573 35.4063 52.9573 34.0796C52.9573 32.7529 51.7412 31.6473 50.4145 31.6473Z" fill="url(#paint4_linear_3_19)"/>
<defs>
<linearGradient id="paint0_linear_3_19" x1="-28.0032" y1="-62.5144" x2="50.6628" y2="27.5875" gradientUnits="userSpaceOnUse">
<stop stop-color="#5CD0F0"/>
<stop offset="1" stop-color="#66D9BD"/>
</linearGradient>
<linearGradient id="paint1_linear_3_19" x1="-29.2174" y1="-37.4403" x2="28.8579" y2="29.0776" gradientUnits="userSpaceOnUse">
<stop stop-color="#5CD0F0"/>
<stop offset="1" stop-color="#66D9BD"/>
</linearGradient>
<linearGradient id="paint2_linear_3_19" x1="16.9215" y1="14.1234" x2="28.6717" y2="27.5816" gradientUnits="userSpaceOnUse">
<stop stop-color="#5CD0F0"/>
<stop offset="1" stop-color="#66D9BD"/>
</linearGradient>
<linearGradient id="paint3_linear_3_19" x1="-45.0921" y1="-31.6583" x2="33.5727" y2="58.4425" gradientUnits="userSpaceOnUse">
<stop stop-color="#5CD0F0"/>
<stop offset="1" stop-color="#66D9BD"/>
</linearGradient>
<linearGradient id="paint4_linear_3_19" x1="-10.87" y1="-19.2135" x2="47.2058" y2="47.3049" gradientUnits="userSpaceOnUse">
<stop stop-color="#5CD0F0"/>
<stop offset="1" stop-color="#66D9BD"/>
</linearGradient>
</defs>
</svg>
